<?xml version="1.0" encoding="UTF-8"?><svg id="Layer_1" xmlns="http://www.w3.org/2000/svg" viewBox="0 0 270.48 166.14"><defs><style>.cls-1{fill:#ffa155;}</style></defs><path class="cls-1" d="M79.2,0h-14.72V80.13h18.52v-25.78l-3.33-24.68h1.19l8.54,22.55,16.99,27.91h21.82L79.2,0Zm-14.72,166.14h18.52v-46.31h-18.52v46.31Zm66.1-46.31l4.64,7.62h5.93l4.39-7.62h-14.96ZM196.46,0l-47.05,80.13h19l15.94-27.67,9.03-22.79h1.19l-2.37,24.92v25.54h19.7V0h-15.43Zm-4.27,119.84v46.31h19.7v-46.31h-19.7Z"/><g><path class="cls-1" d="M25.54,93.99l.47-4.98h-.24l-1.8,4.56-8.64,15h-1.19l-9.16-15.05-1.71-4.51h-.24l.66,4.94v22.36H0v-33.23H2.94l10.4,16.99,1.57,3.7h.1l1.47-3.8,9.92-16.9h3.09v33.23h-3.94v-22.31Z"/><path class="cls-1" d="M68.45,114.92c-.95,.73-2.15,1.23-3.61,1.52-1.46,.28-3.01,.43-4.65,.43-1.99,0-3.86-.34-5.6-1.02-1.74-.68-3.26-1.72-4.56-3.11-1.3-1.39-2.33-3.17-3.09-5.34-.76-2.17-1.14-4.74-1.14-7.71s.42-5.74,1.26-7.9c.84-2.17,1.95-3.94,3.32-5.32s2.92-2.38,4.63-3.01c1.71-.63,3.45-.95,5.22-.95,1.9,0,3.45,.1,4.65,.31,1.2,.21,2.23,.48,3.09,.83l-.95,3.51c-1.52-.76-3.69-1.14-6.5-1.14-1.3,0-2.58,.24-3.85,.71-1.27,.47-2.4,1.25-3.39,2.33-1,1.08-1.8,2.48-2.4,4.22-.6,1.74-.9,3.88-.9,6.41,0,2.28,.29,4.27,.85,5.98s1.35,3.13,2.35,4.27,2.17,1.99,3.51,2.56c1.34,.57,2.81,.85,4.39,.85,1.42,0,2.67-.14,3.73-.43,1.06-.29,1.95-.65,2.68-1.09l.95,3.09Z"/><path class="cls-1" d="M98.93,107.85c0-1.33-.4-2.41-1.19-3.25-.79-.84-1.78-1.58-2.97-2.23-1.19-.65-2.48-1.26-3.87-1.83s-2.68-1.26-3.87-2.07-2.18-1.8-2.97-2.99c-.79-1.19-1.19-2.7-1.19-4.53,0-2.59,.9-4.65,2.71-6.17,1.8-1.52,4.37-2.28,7.69-2.28,1.93,0,3.69,.14,5.27,.43,1.58,.29,2.82,.65,3.7,1.09l-1.19,3.51c-.73-.36-1.8-.7-3.2-1.03-1.41-.33-3-.49-4.77-.49-2.09,0-3.66,.47-4.7,1.4-1.04,.93-1.57,2.03-1.57,3.3s.4,2.26,1.19,3.09c.79,.82,1.78,1.56,2.97,2.21,1.19,.65,2.48,1.29,3.87,1.92,1.39,.63,2.68,1.37,3.87,2.21,1.19,.84,2.18,1.84,2.97,3.01,.79,1.17,1.19,2.63,1.19,4.37,0,1.42-.25,2.71-.76,3.84-.51,1.14-1.25,2.12-2.23,2.94-.98,.82-2.17,1.46-3.56,1.9-1.39,.44-2.97,.66-4.75,.66-2.37,0-4.34-.18-5.89-.55-1.55-.36-2.75-.77-3.61-1.21l1.33-3.51c.73,.4,1.8,.79,3.23,1.18,1.42,.39,3.02,.58,4.79,.58,1.04,0,2.02-.1,2.94-.31,.92-.21,1.71-.54,2.37-1,.66-.46,1.19-1.04,1.59-1.73,.4-.7,.59-1.52,.59-2.47Z"/><path class="cls-1" d="M134.54,107.09h-12.19l-3.31,9.21h-3.94l12.58-33.75h1.8l12.63,33.75h-4.18l-3.4-9.21Zm-10.91-3.42h9.73l-3.68-10.11-1.18-5.03h-.05l-1.18,5.13-3.64,10.02Z"/><path class="cls-1" d="M156.17,83.07h18.09v3.51h-14.15v11.35h13.2v3.51h-13.2v14.86h-3.94v-33.23Z"/><path class="cls-1" d="M206.13,107.09h-12.19l-3.31,9.21h-3.94l12.58-33.75h1.8l12.63,33.75h-4.18l-3.4-9.21Zm-10.91-3.42h9.73l-3.68-10.11-1.18-5.03h-.05l-1.18,5.13-3.64,10.02Z"/><path class="cls-1" d="M227.76,83.4c1.2-.22,2.59-.4,4.15-.52,1.57-.13,3-.19,4.3-.19,1.46,0,2.84,.16,4.15,.47,1.31,.32,2.47,.84,3.47,1.57,1,.73,1.8,1.68,2.4,2.85,.6,1.17,.9,2.6,.9,4.27,0,2.6-.71,4.7-2.14,6.31-1.42,1.61-3.23,2.69-5.41,3.23l2.28,1.76,8.26,13.15h-4.61l-9.16-14.34-4.65-.71v15.05h-3.94v-32.9Zm8.54,2.71h-1.28c-.44,0-.87,.02-1.28,.05-.41,.03-.8,.06-1.16,.1-.36,.03-.66,.08-.88,.14v12.25h3.7c2.18,0,3.99-.54,5.41-1.61,1.42-1.08,2.14-2.75,2.14-5.03,0-1.71-.59-3.12-1.76-4.22-1.17-1.11-2.8-1.66-4.89-1.66Z"/><path class="cls-1" d="M266.54,83.07h3.94v33.23h-3.94v-33.23Z"/></g></svg>